<mxfile host="app.diagrams.net" modified="2023-04-03T21:55:35.469Z" agent="Mozilla/5.0 (Windows NT 10.0; Win64; x64) AppleWebKit/537.36 (KHTML, like Gecko) Chrome/111.0.0.0 Safari/537.36" etag="SabrLoLb3oBlS73xBvAE" version="21.1.2" type="device">
  <diagram name="PÃ¡gina-1" id="Q6HM3l6WZQlaFxbuPTWA">
    <mxGraphModel dx="1050" dy="587" grid="1" gridSize="10" guides="1" tooltips="1" connect="1" arrows="1" fold="1" page="1" pageScale="1" pageWidth="827" pageHeight="1169" math="0" shadow="0">
      <root>
        <mxCell id="0" />
        <mxCell id="1" parent="0" />
        <mxCell id="MSFvAOCZdaasl8uEFYVU-8" style="edgeStyle=orthogonalEdgeStyle;rounded=0;orthogonalLoop=1;jettySize=auto;html=1;entryX=0.5;entryY=0;entryDx=0;entryDy=0;entryPerimeter=0;" edge="1" parent="1" source="MSFvAOCZdaasl8uEFYVU-1" target="MSFvAOCZdaasl8uEFYVU-4">
          <mxGeometry relative="1" as="geometry" />
        </mxCell>
        <mxCell id="MSFvAOCZdaasl8uEFYVU-1" value="Inicio" style="strokeWidth=2;html=1;shape=mxgraph.flowchart.start_1;whiteSpace=wrap;" vertex="1" parent="1">
          <mxGeometry x="340" y="50" width="140" height="60" as="geometry" />
        </mxCell>
        <mxCell id="MSFvAOCZdaasl8uEFYVU-2" value="Fin" style="strokeWidth=2;html=1;shape=mxgraph.flowchart.start_1;whiteSpace=wrap;" vertex="1" parent="1">
          <mxGeometry x="340" y="230" width="140" height="60" as="geometry" />
        </mxCell>
        <mxCell id="MSFvAOCZdaasl8uEFYVU-9" style="edgeStyle=orthogonalEdgeStyle;rounded=0;orthogonalLoop=1;jettySize=auto;html=1;entryX=0.5;entryY=0;entryDx=0;entryDy=0;entryPerimeter=0;" edge="1" parent="1" source="MSFvAOCZdaasl8uEFYVU-4" target="MSFvAOCZdaasl8uEFYVU-2">
          <mxGeometry relative="1" as="geometry" />
        </mxCell>
        <mxCell id="MSFvAOCZdaasl8uEFYVU-4" value="Imprime&amp;nbsp;&lt;br&gt;Hola Mundo" style="strokeWidth=2;html=1;shape=mxgraph.flowchart.display;whiteSpace=wrap;" vertex="1" parent="1">
          <mxGeometry x="342" y="140" width="136" height="60" as="geometry" />
        </mxCell>
      </root>
    </mxGraphModel>
  </diagram>
</mxfile>
